HIERARCHY
ROOT Hips
{
	OFFSET 0.000000 0.000000 0.000000
	CHANNELS 6 Xposition Yposition Zposition Zrotation Yrotation Xrotation 
	JOINT LHipJoint
	{
		OFFSET 0.000000 0.000000 0.000000
		CHANNELS 3 Zrotation Yrotation Xrotation
		JOINT LeftUpLeg
		{
			OFFSET 1.363060 -1.794630 0.839290
			CHANNELS 3 Zrotation Yrotation Xrotation
			JOINT LeftLeg
			{
				OFFSET 2.448110 -6.726130 0.000000
				CHANNELS 3 Zrotation Yrotation Xrotation
				JOINT LeftFoot
				{
					OFFSET 2.562200 -7.039590 0.000000
					CHANNELS 3 Zrotation Yrotation Xrotation
					JOINT LeftToeBase
					{
						OFFSET 0.157640 -0.433110 2.322550
						CHANNELS 3 Zrotation Yrotation Xrotation
						End Site
						{
							OFFSET 0.000000 0.000000 0.000000
						}
					}
				}
			}
		}
	}
	JOINT RHipJoint
	{
		OFFSET 0.000000 0.000000 0.000000
		CHANNELS 3 Zrotation Yrotation Xrotation
		JOINT RightUpLeg
		{
			OFFSET -1.305520 -1.794630 0.839290
			CHANNELS 3 Zrotation Yrotation Xrotation
			JOINT RightLeg
			{
				OFFSET -2.542530 -6.985550 0.000000
				CHANNELS 3 Zrotation Yrotation Xrotation
				JOINT RightFoot
				{
					OFFSET -2.568260 -7.056230 0.000000
					CHANNELS 3 Zrotation Yrotation Xrotation
					JOINT RightToeBase
					{
						OFFSET -0.164730 -0.452590 2.363150
						CHANNELS 3 Zrotation Yrotation Xrotation
						End Site
						{
							OFFSET 0.000000 0.000000 0.000000
						}
					}
				}
			}
		}
	}
}
MOTION
Frames: 25
Frame Time: 0.008333
12.917397 16.896215 1.652615 -170.964457 -89.551581 -154.012064 -9.609653 -0.343684 2.198351 -8.078492 -2.320318 -46.842020 -2.220346 -0.191351 21.822182 3.552722 13.780486 -16.019472 -1.492000 0.000000 -40.601899 7.821006 0.443025 2.089315 8.394408 4.215590 -44.092867 2.655337 0.079246 23.265996 -3.567655 -9.393985 -19.479726 1.571000 0.000000 -55.923900
12.913915 16.819394 1.651364 -161.546426 -89.454235 -162.419739 -9.295960 -0.307899 2.176725 -8.302100 -2.644055 -48.999339 -2.279077 0.000618 24.035576 3.675590 13.748581 -17.238986 -1.799400 -0.000000 -41.006100 8.033558 0.627878 2.211564 8.016191 4.754003 -46.890764 2.580412 -0.331178 26.510370 -3.544826 -8.861519 -20.559684 1.724200 0.000001 -55.826299
12.909907 16.729800 1.648532 -148.646984 -89.562583 -174.277815 -8.948769 -0.311322 2.155807 -8.546136 -3.041451 -51.292850 -2.328235 0.195144 26.478710 3.796461 13.642160 -18.579516 -2.140100 -0.000000 -41.299300 8.287722 0.767085 2.378209 7.583527 5.232248 -49.790630 2.505275 -0.777282 29.778106 -3.503769 -8.288043 -21.653952 1.851900 0.000000 -55.608700
12.905198 16.626529 1.644634 -133.950395 -89.904379 172.093747 -8.685208 -0.398035 2.154374 -8.840715 -3.560996 -53.712877 -2.359280 0.402135 29.141177 3.916345 13.483438 -20.020396 -2.507000 0.000000 -41.420600 8.472294 0.817676 2.570732 7.058430 5.598708 -52.785055 2.429339 -1.249358 33.075271 -3.450232 -7.682333 -22.772709 1.956000 -0.000000 -55.238600
12.899433 16.508771 1.640149 59.073488 -89.669538 -19.831737 -8.544129 -0.508937 2.202915 -9.170542 -4.189378 -56.278363 -2.373820 0.653709 31.990199 4.040686 13.316179 -21.543460 -2.890400 -0.000000 -41.331500 8.550862 0.840386 2.762597 6.448000 5.872633 -55.850184 2.339046 -1.711008 36.425676 -3.388090 -7.044505 -23.909997 2.040100 0.000000 -54.705400
12.892266 16.375961 1.635495 68.076510 -89.264351 -27.705356 -8.456789 -0.576329 2.309401 -9.479170 -4.901468 -59.003878 -2.368535 0.958140 35.009082 4.170266 13.158115 -23.117330 -3.279200 -0.000001 -41.021000 8.591792 0.904130 2.951055 5.804471 6.085137 -58.963033 2.227939 -2.149143 39.828907 -3.324858 -6.404170 -25.062385 2.109300 -0.000000 -54.019400
12.883731 16.228435 1.631524 72.871447 -88.890306 -31.352411 -8.378732 -0.594647 2.465974 -9.725097 -5.694957 -61.869247 -2.333801 1.302885 38.182306 4.300610 13.009710 -24.694824 -3.661200 0.000000 -40.506700 8.640297 1.017886 3.139421 5.169358 6.231082 -62.097989 2.097891 -2.571381 43.263816 -3.269792 -5.805721 -26.226444 2.169900 0.000000 -53.220900
12.873571 16.066804 1.628835 74.596231 -88.525435 -31.918145 -8.304804 -0.584024 2.665546 -9.893882 -6.574805 -64.844811 -2.261489 1.672785 41.482707 4.427405 12.875518 -26.227504 -4.026000 -0.000000 -39.828000 8.702808 1.165250 3.330205 4.556902 6.297219 -65.242109 1.950004 -2.986722 46.715485 -3.231241 -5.287768 -27.397845 2.229700 0.000000 -52.366600
12.861840 15.892423 1.628054 74.313057 -88.154474 -30.479055 -8.241151 -0.564061 2.900170 -9.976427 -7.532417 -67.892865 -2.146665 2.055252 44.873158 4.546653 12.762950 -27.671903 -4.365100 0.000000 -39.039500 8.773195 1.331298 3.521082 3.978100 6.278942 -68.373600 1.783953 -3.399490 50.167104 -3.215020 -4.879737 -28.564893 2.297000 0.000000 -51.526800
12.848354 15.707098 1.629737 72.824275 -87.771093 -27.849113 -8.192372 -0.549234 3.160629 -9.967275 -8.547805 -70.973028 -1.987889 2.439250 48.312722 4.655724 12.681673 -28.995049 -4.673499 0.000000 -38.202500 8.845637 1.505385 3.708979 3.442176 6.182678 -71.466752 1.598480 -3.810652 53.599124 -3.224630 -4.602603 -29.712524 2.380600 -0.000000 -50.773200
12.833386 15.513261 1.634152 70.672099 -87.377629 -24.589515 -8.158860 -0.549571 3.435533 -9.864405 -9.592460 -74.042569 -1.786699 2.815602 51.761067 4.753377 12.642172 -30.176000 -4.950700 -0.000000 -37.378500 8.916673 1.681188 3.890010 2.956918 6.023750 -74.491621 1.392005 -4.219005 56.990347 -3.261192 -4.468540 -30.824929 2.488599 0.000000 -50.169600
12.816822 15.313564 1.641509 68.189292 -86.983958 -21.048270 -8.138577 -0.570427 3.713199 -9.669204 -10.633621 -77.057075 -1.547053 3.176765 55.179692 4.840276 12.656025 -31.208136 -5.200700 -0.000000 -36.621000 8.984820 1.855149 4.060430 2.528206 5.823554 -77.413552 1.163578 -4.620971 60.316890 -3.323828 -4.480777 -31.888581 2.627300 0.000000 -49.758900
12.798885 15.111141 1.651666 65.578197 -86.603159 -17.449485 -8.128161 -0.613841 3.981417 -9.388813 -11.638003 -79.970083 -1.274663 3.517342 58.533910 4.918696 12.735300 -32.097807 -5.431600 -0.000000 -35.972900 9.049171 2.026428 4.215713 2.158339 5.605409 -80.193837 0.913230 -5.011422 63.554643 -3.409973 -4.634276 -32.894131 2.801201 -0.000000 -49.561300
12.779833 14.908865 1.664252 62.977979 -86.249804 -13.951340 -8.124622 -0.679307 4.228837 -9.037451 -12.574129 -82.739760 -0.976492 3.834591 61.797546 4.992099 12.889873 -32.864766 -5.654400 -0.000000 -35.470600 9.108722 2.195490 4.352272 1.844737 5.393173 -82.797560 0.642303 -5.384659 66.684394 -3.515969 -4.915667 -33.841156 3.012000 -0.000000 -49.570300
12.759857 14.710521 1.678849 60.406948 -85.931169 -10.597524 -8.125565 -0.764422 4.445114 -8.631384 -13.423326 -85.306056 -0.660304 4.124186 64.933908 5.065450 13.132180 -33.537908 -5.883999 0.000000 -35.099600 9.162447 2.364788 4.462142 1.581858 5.200390 -85.171140 0.354021 -5.733297 69.679612 -3.637588 -5.311084 -34.727812 3.260000 -0.000000 -49.752401
12.739126 14.518531 1.694652 57.944762 -85.655857 -7.483962 -8.130427 -0.866340 4.622942 -8.196548 -14.165799 -87.631763 -0.334402 4.386618 67.928245 5.142602 13.464170 -34.153550 -6.133900 0.000000 -34.875500 9.209133 2.533952 4.543024 1.364003 5.041487 -87.282434 0.053506 -6.052210 72.526985 -3.770242 -5.795853 -35.569104 3.542900 -0.000000 -50.068300
12.717883 14.335794 1.710841 55.615739 -85.420813 -4.654061 -8.138592 -0.982101 4.756737 -7.758657 -14.799024 -89.669166 -0.007303 4.620429 70.757196 5.227425 13.886936 -34.750227 -6.418399 -0.000000 -34.766100 9.248518 2.703506 4.589595 1.181944 4.918203 -89.090831 -0.253245 -6.336541 75.209849 -3.909771 -6.349911 -36.376389 3.858000 -0.000000 -50.466500
12.696436 14.164797 1.726595 53.457741 -85.218005 -2.162204 -8.149788 -1.108754 4.843732 -7.346237 -15.328259 -91.377887 0.312307 4.825026 73.401709 5.322145 14.394197 -35.364069 -6.749400 -0.000000 -34.734100 9.281551 2.871971 4.598665 1.027436 4.825817 -90.563863 -0.559303 -6.583338 77.714668 -4.052424 -6.952720 -37.163936 4.202300 -0.000001 -50.899900
12.674785 14.007413 1.741065 51.527231 -85.033905 -0.071297 -8.163609 -1.243136 4.884663 -6.985547 -15.767266 -92.727962 0.615927 4.999936 75.844171 5.427194 14.973111 -36.023413 -7.135000 -0.000001 -34.737400 9.311082 3.036109 4.569632 0.892545 4.754067 -91.680019 -0.857690 -6.791489 80.030062 -4.195280 -7.586802 -37.944527 4.572600 -0.000000 -51.330100
12.652866 13.865196 1.753679 49.858333 -84.853938 1.583602 -8.179413 -1.381192 4.883620 -6.696605 -16.135671 -93.703058 0.896095 5.144910 78.069219 5.541074 15.605362 -36.744800 -7.577400 -0.000000 -34.739200 9.340893 3.192034 4.503708 0.773700 4.689311 -92.430358 -1.141293 -6.961841 82.144707 -4.335959 -8.236742 -38.726203 4.965600 -0.000000 -51.724399
12.630707 13.739050 1.763384 48.572435 -84.660246 2.685775 -8.195935 -1.520212 4.845890 -6.504070 -16.453256 -94.297350 1.145379 5.260713 80.064225 5.660299 16.266335 -37.530247 -8.072399 0.000000 -34.711600 9.376705 3.333343 4.408914 0.654452 4.620935 -92.822278 -1.406566 -7.095902 84.054249 -4.473340 -8.897324 -39.508719 5.379099 0.000000 -52.083700
12.607725 13.629580 1.770344 47.634039 -84.444832 3.288935 -8.213209 -1.653399 4.782458 -6.407556 -16.739894 -94.531286 1.359841 5.348036 81.818737 5.780113 16.930194 -38.363969 -8.606700 0.000001 -34.650400 9.421700 3.456746 4.290649 0.539811 4.537334 -92.876054 -1.647159 -7.196943 85.747325 -4.606100 -9.557388 -40.287596 5.808100 0.000001 -52.382600
12.583489 13.536844 1.774255 47.074768 -84.202159 3.384189 -8.231473 -1.775773 4.704034 -6.409752 -17.007994 -94.436134 1.536418 5.408977 83.326607 5.894700 17.568519 -39.215818 -9.159300 0.000000 -34.569200 9.478556 3.557617 4.160744 0.421362 4.436817 -92.628308 -1.860807 -7.267502 87.219384 -4.733999 -10.215653 -41.048873 6.248400 0.000000 -52.624800
12.557346 13.460701 1.775331 46.859070 -83.934824 3.036525 -8.251927 -1.881708 4.622534 -6.500935 -17.263032 -94.058313 1.674638 5.446176 84.585457 5.998103 18.154799 -40.044551 -9.703000 0.000000 -34.498899 9.547208 3.633551 4.030737 0.296222 4.322592 -92.125330 -2.045587 -7.310022 88.465988 -4.856881 -10.870719 -41.773923 6.694600 -0.000000 -52.808900
12.528639 13.400837 1.773955 46.917796 -83.652338 2.345240 -8.276156 -1.966592 4.549035 -6.663964 -17.502262 -93.452111 1.776118 5.462723 85.596972 6.084732 18.666280 -40.802792 -10.207000 0.000000 -34.479900 9.625180 3.683402 3.912197 0.164193 4.205575 -91.418628 -2.200615 -7.326112 89.484238 -4.974793 -11.522438 -42.441208 7.140400 0.000000 -52.932000
